<?xml version="1.0" encoding="utf-8"?>
<!-- Generator: Adobe Illustrator 27.2.0, SVG Export Plug-In . SVG Version: 6.00 Build 0)  -->
<svg version="1.1" id="Layer_1" xmlns="http://www.w3.org/2000/svg" xmlns:xlink="http://www.w3.org/1999/xlink" x="0px" y="0px"
	 viewBox="0 0 120 36" style="enable-background:new 0 0 120 36;" xml:space="preserve">
<g>
	<path d="M16.8,12.1c1.2,0,2.1,0.4,3,1.2s1.2,1.8,1.2,3v6.6H7.1v2.6c0,0.1,0.1,0.2,0.2,0.2H21v4H7.3c-1.2,0-2.1-0.4-3-1.2
		s-1.2-1.8-1.2-3v-9.2c0-1.2,0.4-2.1,1.2-3s1.8-1.2,3-1.2H16.8z M7.1,18.9H17v-2.6c0-0.1-0.1-0.2-0.2-0.2H7.3
		c-0.1,0-0.2,0.1-0.2,0.2V18.9z"/>
	<path d="M46,12v1.7h-4V12c0-0.1-0.1-0.2-0.2-0.2H28.3c-0.1,0-0.2,0.1-0.2,0.2v4.5c0,0.1,0.1,0.2,0.2,0.2h13.4c1.2,0,2.1,0.4,3,1.2
		c0.8,0.8,1.2,1.8,1.2,3v4.5c0,1.2-0.4,2.2-1.2,3c-0.8,0.8-1.8,1.2-3,1.2H28.3c-1.2,0-2.2-0.4-3-1.2c-0.8-0.8-1.2-1.8-1.2-3v-1.7h4
		v1.7c0,0.1,0.1,0.2,0.2,0.2h13.4c0.1,0,0.2-0.1,0.2-0.2V21c0-0.1-0.1-0.2-0.2-0.2H28.3c-1.2,0-2.2-0.4-3-1.2
		c-0.8-0.8-1.2-1.8-1.2-3V12c0-1.2,0.4-2.2,1.2-3c0.8-0.8,1.8-1.2,3-1.2h13.4c1.2,0,2.1,0.4,3,1.2C45.6,9.9,46,10.9,46,12z"/>
	<path d="M60,16.1h-6.9v9.5c0,0.1,0.1,0.2,0.2,0.2H60v4h-6.7c-1.2,0-2.2-0.4-3-1.2c-0.8-0.8-1.2-1.8-1.2-3V6.3h4v5.8H60V16.1z"/>
	<path d="M66.6,12.1h9.5c1.2,0,2.1,0.4,3,1.2c0.8,0.8,1.2,1.8,1.2,3v9.2c0,1.2-0.4,2.1-1.2,3c-0.8,0.8-1.8,1.2-3,1.2h-9.5
		c-1.2,0-2.1-0.4-3-1.2s-1.2-1.8-1.2-3v-9.2c0-1.2,0.4-2.1,1.2-3S65.4,12.1,66.6,12.1z M76.1,16.1h-9.5c-0.1,0-0.2,0.1-0.2,0.2v9.2
		c0,0.1,0.1,0.2,0.2,0.2h9.5c0.1,0,0.2-0.1,0.2-0.2v-9.2C76.3,16.1,76.2,16.1,76.1,16.1z"/>
	<path d="M87.2,12.1H97v4h-9.8c-0.1,0-0.2,0.1-0.2,0.2v13.4h-4V16.3c0-1.2,0.4-2.1,1.2-3C85.1,12.5,86,12.1,87.2,12.1z"/>
	<path d="M112.7,12.1c1.2,0,2.1,0.4,3,1.2c0.8,0.8,1.2,1.8,1.2,3v6.6H103v2.6c0,0.1,0.1,0.2,0.2,0.2h13.7v4h-13.7
		c-1.2,0-2.1-0.4-3-1.2c-0.8-0.8-1.2-1.8-1.2-3v-9.2c0-1.2,0.4-2.1,1.2-3c0.8-0.8,1.8-1.2,3-1.2H112.7z M103,18.9h9.9v-2.6
		c0-0.1-0.1-0.2-0.2-0.2h-9.5c-0.1,0-0.2,0.1-0.2,0.2V18.9z"/>
</g>
</svg>
